<svg width="1200" height="630" viewBox="0 0 1200 630" fill="none" xmlns="http://www.w3.org/2000/svg" role="img" aria-labelledby="title desc">
  <title id="title">Pregunton social preview</title>
  <desc id="desc">Vista previa social de Pregunton con una carta de papel y el imagotipo.</desc>
  <rect width="1200" height="630" fill="#F6EFE2"/>
  <path d="M0 0H1200V630H0V0Z" fill="url(#grain)"/>
  <circle cx="1010" cy="96" r="205" fill="#7AB7D8" opacity="0.12"/>
  <circle cx="185" cy="510" r="270" fill="#F4B942" opacity="0.14"/>
  <g filter="url(#cardShadow)">
    <rect x="144" y="84" width="912" height="462" rx="42" fill="#FFF9ED" stroke="#3A2A23" stroke-width="5"/>
    <rect x="174" y="116" width="852" height="402" rx="32" fill="#FFFDF8" stroke="#D8B985" stroke-width="2" stroke-dasharray="10 12" opacity="0.86"/>
  </g>
  <image href="pregunton-imagotipo-compacto.svg" x="206" y="146" width="430" height="134" preserveAspectRatio="xMinYMid meet"/>
  <text x="222" y="360" fill="#2E211B" font-family="Georgia, 'Times New Roman', serif" font-size="64" font-weight="700" letter-spacing="0">No es un quiz.</text>
  <text x="222" y="430" fill="#2E211B" font-family="Georgia, 'Times New Roman', serif" font-size="64" font-weight="700" letter-spacing="0">Es una excusa para conversar.</text>
  <text x="224" y="488" fill="#665246" font-family="Inter, ui-sans-serif, system-ui, sans-serif" font-size="26" font-weight="800" letter-spacing="1.6">MAZOS DE PREGUNTAS EN ESPAÑOL</text>
  <g transform="translate(870 150) rotate(4)">
    <rect x="0" y="0" width="156" height="214" rx="28" fill="#F1DDBB" stroke="#33251F" stroke-width="5"/>
    <path d="M42 78H78C96 78 109 89 109 105C109 121 96 132 78 132H42" stroke="#2E211B" stroke-width="13" stroke-linecap="round" stroke-linejoin="round"/>
    <path d="M42 132V78" stroke="#2E211B" stroke-width="13" stroke-linecap="round"/>
    <path d="M57 158C67 164 83 165 96 158" stroke="#B9783B" stroke-width="7" stroke-linecap="round"/>
  </g>
  <defs>
    <filter id="cardShadow" x="105" y="52" width="990" height="540" color-interpolation-filters="sRGB">
      <feDropShadow dx="0" dy="18" stdDeviation="22" flood-color="#4A3923" flood-opacity="0.18"/>
      <feDropShadow dx="0" dy="3" stdDeviation="3" flood-color="#4A3923" flood-opacity="0.12"/>
    </filter>
    <pattern id="grain" width="34" height="34" patternUnits="userSpaceOnUse">
      <path d="M34 0H0V34" stroke="#4D3E2A" stroke-opacity="0.035"/>
    </pattern>
  </defs>
</svg>
